<?xml version="1.0" encoding="utf-8"?>
<svg width="32" xmlns="http://www.w3.org/2000/svg" height="32" viewBox="0 0 32 32" xmlns:inkscape="http://www.inkscape.org/namespaces/inkscape">
  <g opacity="1" xmlns:bgra="https://wiki.freepascal.org/LazPaint_SVG_format" inkscape:label="Layer1" inkscape:groupmode="layer" bgra:originalViewBox="-3 -1 38 36">
    <path d="M10.675 14.95 Q6.575 11.075 4.8 7.799999 3.025 4.525 2.925 3.025 2.825 1.525 3.175 1.1 L3.525 0.6749998 23.02499 18.125 22.325 19.075 25.075 21.175 23.475 23.72499 20.275 21.275 19.47499 22.275 17.12499 20.55 Q14.775 18.825 10.675 14.95 z" fill="#fffbf0" stroke="#616161" fill-opacity="1" stroke-width="2" stroke-linecap="round" stroke-opacity="0.7921569" stroke-linejoin="bevel" stroke-dasharray="none"/>
    <path d="M23.25 13.375 Q25.825 10.475 27.2 8.099999 28.575 5.725 28.92499 4.025 29.27499 2.325 28.77499 1.55 L28.27499 0.7750003 19.6 9.899999 Q10.925 19.025 10.85 20.4 10.775 21.775 10.05 22.625 L9.324998 23.47499 11.275 25.02499 12.35 24.05 Q13.425 23.075 14.325 23.075 L15.225 23.075 17.95 19.675 Q20.675 16.275 23.25 13.375 z" fill="#fffbf0" stroke="#616161" fill-opacity="1" stroke-width="2" stroke-linecap="round" stroke-opacity="0.7921569" stroke-linejoin="bevel" stroke-dasharray="none"/>
    <ellipse cx="7.168451" cy="24.59445" rx="5.770424" ry="3.950359" fill="none" stroke="#a30000" transform="translate(-16.23261 14.17024) matrix(0.6462661 -0.7631121 0.7631126 0.6462654 0 0)" stroke-width="5" stroke-opacity="1" stroke-linejoin="round" stroke-dasharray="none"/>
    <ellipse cx="7.118453" cy="24.54445" rx="5.770422" ry="3.950366" fill="none" stroke="#ff2626" transform="translate(-16.21212 14.11437) matrix(0.6462659 -0.7631124 0.7631117 0.6462667 0 0)" stroke-width="1.5" stroke-opacity="1" stroke-linejoin="round" stroke-dasharray="none"/>
    <ellipse cx="24.81845" cy="24.59445" rx="5.83504" ry="3.99459" fill="none" stroke="#a30000" transform="translate(21.39596 59.367) matrix(-0.6309333 -0.7758372 0.7758368 -0.6309336 0 0)" stroke-width="5" stroke-opacity="1" stroke-linejoin="round" stroke-dasharray="none"/>
    <ellipse cx="24.91845" cy="24.54445" rx="5.835039" ry="3.99459" fill="none" stroke="#ff2d2d" transform="translate(21.59783 59.36303) matrix(-0.630933 -0.7758372 0.7758368 -0.6309336 0 0)" stroke-width="1.5" stroke-opacity="1" stroke-linejoin="round" stroke-dasharray="none"/>
  </g>
</svg>
