<?xml version="1.0" encoding="utf-8"?>
<svg width="32" xmlns="http://www.w3.org/2000/svg" height="32" viewBox="0 0 32 32" xmlns:inkscape="http://www.inkscape.org/namespaces/inkscape">
  <g opacity="1" xmlns:bgra="https://wiki.freepascal.org/LazPaint_SVG_format" inkscape:label="Layer1" inkscape:groupmode="layer" bgra:originalViewBox="3 -1 26 34">
    <defs>
      <linearGradient id="layer1-fillgrad2" x1="12.475" x2="20.47499" y1="7.724999" y2="30.325" spreadMethod="pad" gradientUnits="userSpaceOnUse" color-interpolation="linearRGB">
        <stop offset="0" stop-color="#34b104" stop-opacity="1"/>
        <stop offset="1" stop-color="#6ee30d" stop-opacity="1"/>
      </linearGradient>
      <linearGradient id="layer1-fillgrad3" x1="5.375001" x2="18.32499" y1="6.125001" y2="11.625" spreadMethod="pad" gradientUnits="userSpaceOnUse" color-interpolation="linearRGB">
        <stop offset="0" stop-color="#c4f7b7" stop-opacity="0.4627451"/>
        <stop offset="1" stop-color="white" stop-opacity="0"/>
      </linearGradient>
    </defs>
    <path d="M7.974998 32.075 8 16 3 16 3 12.5 16 -0.5 29 12.5 29 16 24 16 24.175 32.02499" fill="#046c00" stroke="none" fill-opacity="0.7921569"/>
    <path d="M10.075 29.92501 10 14 5 14 16.075 2.825 27 14 22 14 21.92499 29.925" fill="url(#layer1-fillgrad2)" stroke="none"/>
    <path d="M5 14 16 3 20.5 7.5 19 8.5 16 5.5 9.5 12 12 12 12 30 10 30 10 14" fill="url(#layer1-fillgrad3)" stroke="none"/>
  </g>
</svg>
