<?xml version="1.0" encoding="utf-8"?>
<svg width="32" xmlns="http://www.w3.org/2000/svg" height="32" viewBox="0 0 32 32" xmlns:inkscape="http://www.inkscape.org/namespaces/inkscape">
  <g opacity="1" xmlns:bgra="https://wiki.freepascal.org/LazPaint_SVG_format" inkscape:label="Layer1" inkscape:groupmode="layer" bgra:originalViewBox="3 0 26 32">
    <defs>
      <linearGradient id="layer1-fillgrad2" x1="12.475" x2="20.47499" y1="11.675" y2="34.275" spreadMethod="pad" gradientUnits="userSpaceOnUse" color-interpolation="linearRGB">
        <stop offset="0" stop-color="#34b104" stop-opacity="1"/>
        <stop offset="1" stop-color="#6ee30d" stop-opacity="1"/>
      </linearGradient>
      <linearGradient id="layer1-fillgrad4" x1="4.925002" x2="16.67499" y1="11.875" y2="15.97499" spreadMethod="pad" gradientUnits="userSpaceOnUse" color-interpolation="linearRGB">
        <stop offset="0" stop-color="#c4f7b7" stop-opacity="0.4627451"/>
        <stop offset="1" stop-color="white" stop-opacity="0"/>
      </linearGradient>
    </defs>
    <path d="M8 32 8 22 3 22 3 17.5 16 4.5 29 17.5 29 22 24 22 24 32" fill="#046c00" stroke="none" fill-opacity="0.7921569"/>
    <path d="M10 29.95 10 20 4.5 20 16 8 27.5 20 22 20 22 29.95" fill="url(#layer1-fillgrad2)" stroke="none"/>
    <rect x="4" y="0" fill="#05a000" width="24" height="2" stroke="none" fill-opacity="1"/>
    <path d="M5 20 16 7 20.5 11.5 19 13 16 10.5 9 18 12 18 12 30 10 30 10 20" fill="url(#layer1-fillgrad4)" stroke="none"/>
  </g>
</svg>
