<?xml version="1.0" encoding="utf-8"?>
<svg width="32" xmlns="http://www.w3.org/2000/svg" height="32" viewBox="0 0 32 32" xmlns:inkscape="http://www.inkscape.org/namespaces/inkscape">
  <g opacity="1" xmlns:bgra="https://wiki.freepascal.org/LazPaint_SVG_format" inkscape:label="Layer1" inkscape:groupmode="layer" bgra:originalViewBox="1 2 31 29">
    <path d="M9.15625 12.65625 8.5 13.21875 Q7.84375 13.78125 7.3125 13.8125 6.78125 13.84375 5.5 13.6875 4.21875 13.53125 3.78125 12.6875 3.34375 11.84375 3.3125 10.59375 3.28125 9.34375 3.78125 8.09375 4.28125 6.84375 5.21875 5.78125 6.15625 4.71875 7.34375 4.59375 8.53125 4.46875 9.5 4.5 L10.46875 4.53125 10.4375 8.6875 Q10.40625 12.84375 10.84375 13.3125 11.28125 13.78125 12.15625 13.8125 L13.03125 13.84375" fill="none" stroke="#4444ff" stroke-width="3" stroke-linecap="round" stroke-opacity="1" stroke-linejoin="miter" stroke-dasharray="none"/>
    <path d="M18.78125 9.84375 19.40625 9.34375 Q20.03125 8.84375 21.28125 8.84375 22.53125 8.84375 23.6875 9.15625 24.84375 9.46875 25.65625 10.78125 26.46875 12.09375 27.09375 15.71875 27.71875 19.34375 28.3125 19.5 28.90625 19.65625 27.90625 18.78125 26.90625 17.90625 26.96875 15.96875 L27.03125 14.03125" fill="none" stroke="#4444ff" stroke-width="3" stroke-linecap="round" stroke-opacity="1" stroke-linejoin="miter" stroke-dasharray="none"/>
    <path d="M25.59375 12.46875 23.625 13.28125 Q21.65625 14.09375 20.4375 14.84375 19.21875 15.59375 18.75 16.59375 18.28125 17.59375 18.5625 18.34375 18.84375 19.09375 19.96875 19.40625 21.09375 19.71875 22.6875 19.53125 24.28125 19.34375 25.3125 17.90625 26.34375 16.46875 25.96875 14.46875 z" fill="none" stroke="#4444ff" stroke-width="3" stroke-linecap="round" stroke-opacity="1" stroke-linejoin="miter" stroke-dasharray="none"/>
    <path d="M5.34375 18.84375 8.5 18.8125 Q11.65625 18.78125 12.53125 19.34375 13.40625 19.90625 13.4375 23.5625 13.46875 27.21875 14.21875 27.8125 L14.96875 28.40625" fill="none" stroke="#4444ff" stroke-width="3" stroke-linecap="round" stroke-opacity="1" stroke-linejoin="miter" stroke-dasharray="none"/>
    <path d="M12.71875 23.09375 9.5 23.09375 Q6.28125 23.09375 5.59375 23.875 4.90625 24.65625 4.96875 26.21875 5.03125 27.78125 5.6875 28.21875 6.34375 28.65625 9 28.5 11.65625 28.34375 12.53125 27.625 L13.40625 26.90625" fill="none" stroke="#4444ff" stroke-width="3" stroke-linecap="round" stroke-opacity="1" stroke-linejoin="miter" stroke-dasharray="none"/>
  </g>
</svg>
